<svg xmlns="http://www.w3.org/2000/svg" viewBox="0 5.800000190734863 211.4499969482422 44.400001525878906" data-asc="0.819" width="211.4499969482422" height="44.400001525878906"><defs/><g fill="#5b2d9f"><g transform="translate(0, 0)"><path d="M23.85 40.95L22.70 29.45L13.80 30.25L12.75 40.95L3 40.95L0 10.65L15.75 10.65L14.60 22.20L22 22.20L20.85 10.65L36.60 10.65L33.60 40.95L23.85 40.95ZM42.98 38.47Q42.98 38.47 41.16 36.99Q39.35 35.50 39.35 29.00Q39.35 22.50 42.98 19.52Q46.60 16.55 52.65 16.55Q58.70 16.55 62.33 19.52Q65.95 22.50 65.95 29.00Q65.95 35.50 62.33 38.47Q58.70 41.45 52.65 41.45Q46.60 41.45 42.98 38.47M50.55 23.32Q50.55 23.32 50.25 24.19Q49.95 25.05 49.95 29.00Q49.95 32.95 50.55 34.67Q51.15 36.40 52.65 36.40Q54.15 36.40 54.75 34.67Q55.35 32.95 55.35 29.00Q55.35 25.05 54.75 23.32Q54.15 21.60 52.65 21.60Q51.15 21.60 50.55 23.32ZM80.60 8.50L79.25 40.95L70.05 40.95L68.70 8.50L80.60 8.50ZM95.50 17.95L96.35 17.65L94.65 40.95L85.20 40.95L83.60 17.65Q86.45 18.80 89.68 18.80Q92.90 18.80 95.50 17.95M89.95 16.60Q89.95 16.60 88.70 16.60Q87.45 16.60 85.75 15.10Q84.05 13.60 84.05 11.17Q84.05 8.75 85.73 7.27Q87.40 5.80 89.93 5.80Q92.45 5.80 94.15 7.30Q95.85 8.80 95.85 11.20Q95.85 13.60 94.15 15.10Q92.45 16.60 89.95 16.60ZM99.10 28.55Q99.10 25.10 100.08 22.60Q101.05 20.10 102.65 18.85Q105.60 16.55 109.20 16.55Q111.00 16.55 112.53 17.27Q114.05 18.00 114.65 18.75L115.25 19.45L114.85 8.50L126.25 8.50L124.90 40.95L117.40 40.95L116.55 37.70Q113.55 41.40 109.18 41.42Q104.80 41.45 101.95 38.15Q99.10 34.85 99.10 28.55M112.40 23.25Q109.45 23.25 109.45 29.25Q109.45 30.35 109.60 31.35Q109.75 32.35 110.50 33.45Q111.25 34.55 112.70 34.55Q114.15 34.55 114.93 32.92Q115.70 31.30 115.70 29.25Q115.70 23.25 112.40 23.25ZM137.80 41.45Q133.95 41.45 131.48 39.20Q129 36.95 129 32.82Q129 28.70 131.80 26.82Q134.60 24.95 138.55 24.95Q142.50 24.95 145.40 26.20Q144.75 22.05 140.15 22.05Q138.05 22.05 134.95 22.90L133.70 18.40Q138.20 16.55 142.85 16.55Q156.25 16.55 156.25 27.95Q156.25 31.85 155.35 38.75L155.10 40.95L146.85 40.95L146.55 38.20Q143.15 41.45 137.80 41.45M142.30 35.25Q144.55 35.25 146.15 34.00L145.85 30.70Q144.60 29.85 143.08 29.85Q141.55 29.85 140.58 30.60Q139.60 31.35 139.60 32.45Q139.60 33.55 140.35 34.40Q141.10 35.25 142.30 35.25ZM176.60 35.40L176.60 35.00Q176.45 35.85 175.82 36.87Q175.20 37.90 174.45 38.60Q173.70 39.30 172.32 39.85Q170.95 40.40 168.70 40.40Q166.45 40.40 164.45 39.37Q162.45 38.35 161.35 36.55Q159.25 33.20 159.25 29.17Q159.25 25.15 160.40 17.25L170.10 17.25L170.10 28.05Q170.10 33.55 173.35 33.55Q174.80 33.55 175.50 32.25Q176.20 30.95 176.20 28.95Q176.20 28.70 176.20 28.40L175.75 17.25L187 17.25L186.30 32.60Q186.15 35.85 185.82 38.15Q185.50 40.45 184.63 42.87Q183.75 45.30 182.35 46.80Q179.10 50.20 172.70 50.20Q168.20 50.20 164.25 47.40L163.80 47.10L165.90 42.80Q168.30 43.90 170.40 43.90Q173.30 43.90 174.95 41.67Q176.60 39.45 176.60 35.40ZM211.45 33.45Q211.45 36.30 209.55 38.20Q207.65 40.10 205.18 40.77Q202.70 41.45 200.40 41.45Q198.10 41.45 196.38 41.15Q194.65 40.85 193.45 40.45Q191.25 39.60 189.95 38.85L189.50 38.55L191.70 34.00Q194.70 35.70 196.75 35.70Q198.80 35.70 198.80 34.00Q198.80 33.15 197.50 32.25Q196.20 31.35 194.68 30.55Q193.15 29.75 191.85 28.10Q190.55 26.45 190.55 24.30Q190.55 20.45 193.45 18.50Q196.35 16.55 201.10 16.55Q203.50 16.55 205.80 16.95Q208.10 17.35 209.25 17.75L210.35 18.20L209.10 23.25Q206.25 22.20 204.25 22.20Q202.25 22.20 202.25 23.75Q202.25 24.50 203.20 25.17Q204.15 25.85 205.50 26.50Q206.85 27.15 208.20 27.97Q209.55 28.80 210.50 30.22Q211.45 31.65 211.45 33.45Z"/></g></g></svg>